Coordinates
version=1
nRows=10
nColumns=22
inDegrees=yes

Units are S.I. units (second, meters, Newtons, ...)
If the header above contains a line with 'inDegrees', this indicates whether rotational values are in degrees (yes) or radians (no).

endheader
time	pelvis_tilt	pelvis_list	pelvis_rotation	pelvis_tx	pelvis_ty	pelvis_tz	hip_flexion_r	hip_adduction_r	hip_rotation_r	knee_angle_r	ankle_angle_r	subtalar_angle_r	hip_flexion_l	hip_adduction_l	hip_rotation_l	knee_angle_l	ankle_angle_l	subtalar_angle_l	lumbar_extension	lumbar_bending	lumbar_rotation
      1.49000000	     -9.92697147	      4.65520090	    -43.29254528	     -1.62498964	      0.87426027	     -0.36850794	     11.19492068	      1.77442179	      3.49509785	    -14.25267373	     18.24158518	     -0.97826946	      9.27503569	    -11.17346004	     -9.13531449	    -17.92224457	     18.87682833	      7.15313901	      2.88156239	      2.01448571	     12.81377610
      1.50000000	     -9.95760113	      4.48793302	    -43.41532750	     -1.62517077	      0.87369732	     -0.36637953	     11.04349569	      2.08123020	      3.71565058	    -14.35873192	     18.50156928	     -1.34117566	      9.84222890	    -11.54360014	     -8.92970952	    -19.37048801	     19.21081239	      6.99635064	      2.76767936	      2.22907108	     12.84138957
      1.51000000	     -9.99943877	      4.27931030	    -43.52192545	     -1.62529406	      0.87312953	     -0.36424022	     10.82202577	      2.42056896	      3.92768750	    -14.38506574	     18.72317678	     -1.64120974	     10.49450931	    -11.96118201	     -8.67864268	    -21.00450757	     19.49831381	      6.85423658	      2.62395619	      2.49469121	     12.87156647
      1.52000000	    -10.03042924	      4.05617209	    -43.61308101	     -1.62540400	      0.87255322	     -0.36212694	     10.58491699	      2.76026424	      4.11128090	    -14.42518208	     18.98289477	     -2.04358511	     11.23035436	    -12.38133087	     -8.35562625	    -22.81016971	     19.72783220	      6.70240764	      2.44277346	      2.76406717	     12.89781145
      1.53000000	    -10.03939130	      3.79249062	    -43.68245374	     -1.62542105	      0.87206237	     -0.36002736	     10.25296145	      3.10177722	      4.27366123	    -14.38138407	     19.18210123	     -2.31879514	     12.02285055	    -12.81537603	     -7.98600605	    -24.79379853	     19.84234186	      6.56727023	      2.19979742	      3.05336440	     12.92175363
      1.54000000	    -10.01590376	      3.52606568	    -43.73757265	     -1.62543333	      0.87163994	     -0.35798390	      9.91015776	      3.41734388	      4.40794490	    -14.36651082	     19.41445583	     -2.65726246	     12.89198031	    -13.21930609	     -7.53579639	    -26.94610616	     19.81740369	      6.42123655	      1.90201375	      3.31415277	     12.95430876
      1.55000000	     -9.94475046	      3.24280618	    -43.77188256	     -1.62534106	      0.87136863	     -0.35599450	      9.48232628	      3.69394891	      4.50826412	    -14.28285570	     19.59109436	     -2.88115445	     13.81537480	    -13.59062188	     -7.03873523	    -29.26788699	     19.62594677	      6.28645034	      1.53481139	      3.55268419	     12.99456296
      1.56000000	     -9.81233321	      2.93633164	    -43.79737248	     -1.62522251	      0.87128459	     -0.35407039	      8.99956195	      3.93640766	      4.58799935	    -14.21227556	     19.74693646	     -3.03440681	     14.77813552	    -13.92185303	     -6.47871819	    -31.74968876	     19.26109174	      6.15262078	      1.06917255	      3.75726548	     13.04821909
      1.57000000	     -9.65773747	      2.67763180	    -43.79643240	     -1.62504252	      0.87129753	     -0.35224867	      8.51929067	      4.11181995	      4.63356540	    -14.10330206	     19.87595682	     -3.20898482	     15.87594447	    -14.17377549	     -5.84599908	    -34.39189028	     18.66667327	      5.97199856	      0.60411973	      3.90066245	     13.11337377
      1.58000000	     -9.48087931	      2.47505231	    -43.79331560	     -1.62483379	      0.87139348	     -0.35050721	      8.06312085	      4.21977718	      4.67128647	    -13.98688126	     20.02160911	     -3.41743504	     17.09834539	    -14.33880326	     -5.16950945	    -37.16470306	     17.88548906	      5.67522857	      0.14443759	      3.97354077	     13.22368840
